<?xml version="1.0" encoding="UTF-8" standalone="no"?>
<svg width="32" height="32" viewBox="0 0 32 32" fill="none" xmlns="http://www.w3.org/2000/svg">
  <circle cx="16" cy="16" r="16" fill="#E2E8F0"/>
  <path d="M16 8C11.5817 8 8 11.5817 8 16C8 20.4183 11.5817 24 16 24C20.4183 24 24 20.4183 24 16C24 11.5817 20.4183 8 16 8ZM16 9.6C19.5346 9.6 22.4 12.4654 22.4 16C22.4 19.5346 19.5346 22.4 16 22.4C12.4654 22.4 9.6 19.5346 9.6 16C9.6 12.4654 12.4654 9.6 16 9.6Z" fill="#94A3B8"/>
  <path d="M16 11.2C14.6745 11.2 13.4447 11.7057 12.5446 12.5446C11.7057 13.4447 11.2 14.6745 11.2 16C11.2 17.3255 11.7057 18.5553 12.5446 19.4554C13.4447 20.2943 14.6745 20.8 16 20.8C17.3255 20.8 18.5553 20.2943 19.4554 19.4554C20.2943 18.5553 20.8 17.3255 20.8 16C20.8 14.6745 20.2943 13.4447 19.4554 12.5446C18.5553 11.7057 17.3255 11.2 16 11.2Z" fill="#94A3B8"/>
  <path d="M16.8 14.4H15.2V17.6H18.4V16H16.8V14.4Z" fill="#E2E8F0"/>
</svg>